<?xml version="1.0" encoding="UTF-8" standalone="no"?>
<!-- Created with Inkscape (http://www.inkscape.org/) -->

<svg
   xmlns:dc="http://purl.org/dc/elements/1.1/"
   xmlns:cc="http://creativecommons.org/ns#"
   xmlns:rdf="http://www.w3.org/1999/02/22-rdf-syntax-ns#"
   xmlns:svg="http://www.w3.org/2000/svg"
   xmlns="http://www.w3.org/2000/svg"
   xmlns:sodipodi="http://sodipodi.sourceforge.net/DTD/sodipodi-0.dtd"
   xmlns:inkscape="http://www.inkscape.org/namespaces/inkscape"
   version="1.1"
   width="404"
   height="168"
   id="svg2816"
   xml:space="preserve"
   inkscape:version="0.48.1 r9760"
   sodipodi:docname="20111016032913!FIFA_Logo(2010).svg"><metadata
     id="metadata34"><rdf:RDF><cc:Work
         rdf:about=""><dc:format>image/svg+xml</dc:format><dc:type
           rdf:resource="http://purl.org/dc/dcmitype/StillImage" /></cc:Work></rdf:RDF></metadata><sodipodi:namedview
     pagecolor="#ffffff"
     bordercolor="#666666"
     borderopacity="1"
     objecttolerance="10"
     gridtolerance="10"
     guidetolerance="10"
     inkscape:pageopacity="0"
     inkscape:pageshadow="2"
     inkscape:window-width="716"
     inkscape:window-height="527"
     id="namedview32"
     showgrid="false"
     fit-margin-top="12"
     fit-margin-bottom="12"
     fit-margin-left="12"
     fit-margin-right="12"
     inkscape:zoom="1.2475"
     inkscape:cx="202.00005"
     inkscape:cy="93.55982"
     inkscape:window-x="0"
     inkscape:window-y="25"
     inkscape:window-maximized="0"
     inkscape:current-layer="svg2816" /><defs
     id="defs2820"><linearGradient
       x1="0"
       y1="0"
       x2="1"
       y2="0"
       id="linearGradient2838"
       gradientUnits="userSpaceOnUse"
       gradientTransform="matrix(0,-556,-556,0,460.05,606.639)"
       spreadMethod="pad"><stop
         id="stop2840"
         style="stop-color:#0095d5;stop-opacity:1"
         offset="0" /><stop
         id="stop2842"
         style="stop-color:#003768;stop-opacity:1"
         offset="1" /></linearGradient><clipPath
       id="clipPath2850"><path
         d="m 891.236,624.779 -878.74,0 0,-612.283 878.74,0 0,612.283 z"
         id="path2852"
         inkscape:connector-curvature="0" /></clipPath><clipPath
       id="clipPath2862"><path
         d="m 892.231,625.86 -432.862,0 0,-480.67 432.862,0 0,480.67 z"
         id="path2864"
         inkscape:connector-curvature="0" /></clipPath><clipPath
       id="clipPath2868"><path
         d="m 460.37,624.78 430.633,0 0.233,-132.352 C 745.038,300.714 596.843,194.838 461.172,146.15 l -0.802,478.63"
         id="path2870"
         inkscape:connector-curvature="0" /></clipPath><clipPath
       id="clipPath2904"><path
         d="m 891.236,624.779 -878.74,0 0,-612.283 878.74,0 0,612.283 z"
         id="path2906"
         inkscape:connector-curvature="0" /></clipPath><linearGradient
       x1="0"
       y1="0"
       x2="1"
       y2="0"
       id="linearGradient2930"
       gradientUnits="userSpaceOnUse"
       gradientTransform="matrix(0,612.126,612.126,0,450.816,12.874)"
       spreadMethod="pad"><stop
         id="stop2932"
         style="stop-color:#003768;stop-opacity:1"
         offset="0" /><stop
         id="stop2934"
         style="stop-color:#0095d5;stop-opacity:1"
         offset="1" /></linearGradient></defs><g
     transform="matrix(1.25,0,0,-1.25,-577.0112,190.71608)"
     id="g2826"><g
       transform="matrix(3.0279789,0,0,3.0279789,-1773.2259,-155.95884)"
       id="g3016"
       style="fill:#131a3c;fill-opacity:1"><g
         transform="translate(841.575,61.715)"
         id="g2876"
         style="fill:#131a3c;fill-opacity:1"><path
           d="M 0,0 C -0.034,0.08 -0.078,0.152 -0.136,0.213 -0.195,0.277 -0.266,0.322 -0.347,0.36 -0.425,0.395 -0.511,0.412 -0.604,0.412 -0.697,0.412 -0.783,0.395 -0.864,0.36 -0.945,0.322 -1.016,0.277 -1.073,0.213 -1.133,0.152 -1.177,0.08 -1.214,0 c -0.034,-0.083 -0.049,-0.17 -0.049,-0.26 0,-0.095 0.015,-0.183 0.049,-0.263 0.037,-0.083 0.081,-0.154 0.141,-0.213 0.057,-0.064 0.128,-0.112 0.209,-0.147 0.081,-0.038 0.167,-0.057 0.26,-0.057 0.093,0 0.179,0.019 0.257,0.057 0.081,0.035 0.152,0.083 0.211,0.147 0.058,0.059 0.102,0.13 0.136,0.213 0.034,0.08 0.054,0.168 0.054,0.263 C 0.054,-0.17 0.034,-0.083 0,0 z M -2.801,1.035 C -2.825,0.829 -2.882,0.63 -2.967,0.44 -3.051,0.251 -3.171,0.092 -3.327,-0.04 c -0.157,-0.133 -0.362,-0.197 -0.62,-0.197 -0.065,0 -0.152,0.007 -0.252,0.024 -0.1,0.021 -0.196,0.066 -0.292,0.14 -0.094,0.075 -0.178,0.189 -0.247,0.336 -0.069,0.147 -0.105,0.35 -0.105,0.608 0,0.126 0.022,0.28 0.066,0.464 0.039,0.19 0.108,0.367 0.203,0.538 0.099,0.171 0.225,0.317 0.385,0.445 0.154,0.121 0.35,0.185 0.573,0.185 0.1,0 0.198,-0.014 0.299,-0.043 0.105,-0.031 0.197,-0.078 0.279,-0.149 0.083,-0.069 0.149,-0.166 0.2,-0.287 0.052,-0.12 0.079,-0.277 0.079,-0.461 0,-0.145 -0.015,-0.322 -0.042,-0.528 z m 1.072,3.618 -0.303,0 -0.463,-2.162 C -2.526,2.638 -2.581,2.759 -2.661,2.863 -2.737,2.965 -2.836,3.047 -2.938,3.111 -3.045,3.178 -3.159,3.225 -3.281,3.256 -3.406,3.284 -3.526,3.301 -3.645,3.301 -4.028,3.301 -4.358,3.213 -4.633,3.04 -4.909,2.865 -5.132,2.65 -5.313,2.392 -5.49,2.136 -5.621,1.863 -5.703,1.57 -5.786,1.281 -5.823,1.023 -5.823,0.793 -5.83,0.412 -5.761,0.099 -5.621,-0.142 c 0.142,-0.244 0.308,-0.431 0.497,-0.559 0.193,-0.13 0.384,-0.22 0.573,-0.267 0.193,-0.045 0.34,-0.069 0.445,-0.069 0.394,0 0.727,0.066 0.995,0.201 0.264,0.133 0.486,0.306 0.667,0.523 0.177,0.216 0.314,0.46 0.415,0.732 0.1,0.27 0.179,0.547 0.234,0.822 l 0.561,2.649 c 0.025,0.088 0.032,0.178 0.032,0.277 0,0.18 -0.046,0.306 -0.137,0.377 -0.096,0.073 -0.223,0.109 -0.39,0.109 z m -5.093,-4.79 c -0.08,0.012 -0.144,0.033 -0.202,0.061 -0.062,0.031 -0.106,0.076 -0.145,0.133 -0.034,0.054 -0.054,0.13 -0.054,0.222 0,0.062 0.009,0.128 0.022,0.199 l 0.732,3.434 c 0.023,0.085 0.032,0.168 0.032,0.255 0,0.171 -0.046,0.292 -0.142,0.37 -0.094,0.076 -0.225,0.116 -0.397,0.116 l -0.313,0 -0.904,-4.262 C -8.207,0.324 -8.218,0.261 -8.222,0.199 -8.227,0.137 -8.229,0.078 -8.229,0.014 c 0,-0.201 0.034,-0.367 0.093,-0.497 0.069,-0.13 0.147,-0.232 0.25,-0.308 0.099,-0.076 0.207,-0.125 0.328,-0.154 0.122,-0.028 0.237,-0.04 0.344,-0.04 0.216,0 0.397,0.038 0.547,0.116 0.147,0.076 0.244,0.22 0.287,0.429 l 0.051,0.288 -0.248,0 c -0.083,0 -0.169,0.005 -0.245,0.015 z m -1.554,2.886 c 0,0.028 0.002,0.055 0.002,0.078 0,0.081 -0.02,0.152 -0.064,0.209 -0.041,0.056 -0.097,0.101 -0.168,0.142 -0.071,0.038 -0.155,0.066 -0.25,0.085 -0.096,0.019 -0.196,0.026 -0.302,0.026 -0.257,0 -0.477,-0.05 -0.667,-0.144 -0.19,-0.093 -0.353,-0.216 -0.488,-0.368 -0.138,-0.153 -0.248,-0.326 -0.335,-0.518 -0.089,-0.194 -0.153,-0.386 -0.192,-0.58 l -0.408,-1.909 c -0.018,-0.078 -0.025,-0.151 -0.025,-0.222 0,-0.166 0.047,-0.287 0.137,-0.367 0.098,-0.078 0.225,-0.121 0.387,-0.121 l 0.308,0 0.51,2.425 c 0.031,0.135 0.069,0.26 0.113,0.378 0.043,0.119 0.098,0.223 0.171,0.313 0.074,0.09 0.159,0.161 0.257,0.213 0.101,0.05 0.223,0.076 0.37,0.076 0.093,0 0.186,-0.01 0.266,-0.028 0.082,-0.024 0.162,-0.062 0.24,-0.119 l 0.037,0 0.086,0.355 c 0.008,0.026 0.012,0.052 0.015,0.076 z m -4.438,-1.828 c -0.051,-0.215 -0.129,-0.407 -0.236,-0.575 -0.103,-0.171 -0.236,-0.308 -0.392,-0.415 -0.158,-0.104 -0.341,-0.158 -0.55,-0.158 -0.087,0 -0.181,0.014 -0.278,0.04 -0.098,0.026 -0.189,0.073 -0.277,0.142 -0.085,0.071 -0.162,0.166 -0.215,0.286 -0.06,0.119 -0.086,0.28 -0.086,0.474 0,0.218 0.026,0.431 0.081,0.642 0.051,0.211 0.137,0.4 0.243,0.571 0.107,0.17 0.239,0.305 0.396,0.407 0.159,0.104 0.338,0.156 0.551,0.156 0.107,0 0.21,-0.017 0.313,-0.047 0.097,-0.031 0.189,-0.081 0.264,-0.152 0.076,-0.069 0.14,-0.163 0.189,-0.286 0.049,-0.119 0.077,-0.266 0.077,-0.441 0,-0.218 -0.028,-0.433 -0.08,-0.644 z m 0.449,2.01 c -0.172,0.133 -0.353,0.228 -0.549,0.285 -0.196,0.056 -0.37,0.085 -0.526,0.085 -0.367,0 -0.703,-0.069 -0.999,-0.209 -0.299,-0.139 -0.548,-0.326 -0.757,-0.563 -0.203,-0.239 -0.362,-0.516 -0.472,-0.836 -0.11,-0.32 -0.167,-0.656 -0.167,-1.013 0,-0.32 0.057,-0.588 0.169,-0.808 0.115,-0.22 0.257,-0.398 0.429,-0.53 0.171,-0.135 0.357,-0.232 0.562,-0.289 0.204,-0.062 0.39,-0.09 0.566,-0.09 0.397,0 0.742,0.078 1.036,0.232 0.296,0.154 0.541,0.355 0.735,0.606 0.198,0.253 0.345,0.535 0.441,0.85 0.098,0.315 0.144,0.632 0.144,0.95 0,0.324 -0.057,0.592 -0.174,0.807 -0.119,0.216 -0.264,0.391 -0.438,0.523 z m -3.338,0.815 c 0.024,0.083 0.037,0.159 0.037,0.225 0,0.102 -0.029,0.182 -0.086,0.246 -0.061,0.062 -0.142,0.093 -0.242,0.093 l -0.558,0 c -0.23,-0.673 -0.5,-1.329 -0.808,-1.961 -0.309,-0.635 -0.642,-1.25 -1.002,-1.847 -0.091,0.49 -0.159,0.973 -0.198,1.456 -0.042,0.483 -0.064,0.94 -0.064,1.374 l 0,0.113 c 0,0.246 -0.042,0.424 -0.132,0.528 -0.084,0.104 -0.238,0.159 -0.451,0.159 l -0.318,0 C -19.75,3.561 -20.02,2.96 -20.33,2.33 c -0.312,-0.635 -0.64,-1.238 -0.99,-1.828 -0.071,0.386 -0.127,0.774 -0.157,1.163 -0.031,0.39 -0.052,0.762 -0.059,1.12 0,0.071 0,0.144 0,0.213 0,0.078 0.007,0.161 0.013,0.248 0,0.041 0,0.078 0,0.114 0,0.038 0,0.076 0,0.118 0,0.086 -0.006,0.178 -0.015,0.275 -0.012,0.097 -0.032,0.19 -0.062,0.27 -0.03,0.083 -0.075,0.149 -0.142,0.204 -0.058,0.054 -0.138,0.083 -0.241,0.083 l -0.486,0 c -0.014,-0.197 -0.026,-0.391 -0.036,-0.585 -0.007,-0.195 -0.014,-0.391 -0.014,-0.58 -0.005,-0.59 0.024,-1.165 0.087,-1.724 0.059,-0.559 0.162,-1.101 0.307,-1.632 0.019,-0.078 0.041,-0.156 0.068,-0.236 0.024,-0.086 0.051,-0.161 0.079,-0.233 0.041,-0.118 0.1,-0.196 0.181,-0.243 0.078,-0.043 0.154,-0.062 0.225,-0.062 l 0.252,0 c 0.171,0.208 0.343,0.452 0.517,0.729 0.174,0.277 0.347,0.569 0.514,0.874 0.165,0.305 0.326,0.616 0.475,0.926 0.151,0.31 0.286,0.601 0.403,0.876 0,-0.242 0.009,-0.509 0.028,-0.8 0.02,-0.292 0.044,-0.578 0.078,-0.862 0.034,-0.287 0.073,-0.554 0.123,-0.805 0.049,-0.254 0.103,-0.462 0.169,-0.633 0.039,-0.118 0.093,-0.196 0.166,-0.243 0.069,-0.043 0.142,-0.062 0.213,-0.062 l 0.257,0 c 0.247,0.322 0.493,0.672 0.738,1.049 0.249,0.376 0.484,0.762 0.71,1.153 0.227,0.393 0.44,0.789 0.631,1.182 0.197,0.398 0.369,0.774 0.52,1.131 0.023,0.062 0.053,0.133 0.075,0.216 z M -26.244,1.65 c -0.108,-0.078 -0.24,-0.125 -0.409,-0.151 -0.105,-0.014 -0.23,-0.026 -0.377,-0.038 -0.145,-0.009 -0.308,-0.017 -0.487,-0.017 l -0.497,0 c 0.009,0.012 0.021,0.06 0.041,0.145 0.019,0.083 0.062,0.175 0.115,0.284 0.057,0.109 0.133,0.211 0.228,0.305 0.095,0.09 0.21,0.171 0.348,0.24 0.137,0.064 0.296,0.094 0.479,0.094 0.089,0 0.174,-0.007 0.26,-0.023 0.086,-0.017 0.159,-0.05 0.228,-0.09 0.064,-0.045 0.122,-0.102 0.162,-0.168 0.041,-0.069 0.06,-0.154 0.06,-0.256 0,-0.142 -0.051,-0.251 -0.151,-0.325 z m 0.488,1.395 c -0.158,0.097 -0.321,0.166 -0.488,0.208 -0.172,0.038 -0.314,0.06 -0.426,0.06 -0.314,0 -0.59,-0.048 -0.83,-0.147 -0.241,-0.097 -0.443,-0.223 -0.622,-0.377 -0.176,-0.151 -0.326,-0.326 -0.444,-0.521 -0.117,-0.191 -0.215,-0.381 -0.284,-0.573 -0.073,-0.189 -0.124,-0.367 -0.154,-0.53 -0.032,-0.163 -0.046,-0.298 -0.046,-0.4 -0.007,-0.37 0.051,-0.673 0.169,-0.907 0.117,-0.232 0.262,-0.412 0.436,-0.549 0.174,-0.133 0.355,-0.223 0.548,-0.273 0.191,-0.049 0.362,-0.073 0.509,-0.073 0.463,0 0.83,0.078 1.102,0.232 0.272,0.152 0.436,0.369 0.485,0.651 l 0.049,0.27 -0.032,0 C -25.955,0 -26.141,-0.09 -26.342,-0.149 c -0.203,-0.059 -0.443,-0.088 -0.723,-0.088 -0.087,0 -0.197,0.007 -0.318,0.022 -0.12,0.016 -0.232,0.056 -0.335,0.116 -0.103,0.063 -0.191,0.156 -0.264,0.277 -0.071,0.123 -0.106,0.291 -0.106,0.502 l 0,0.078 0.517,0 c 0.453,0 0.83,0.023 1.136,0.071 0.303,0.049 0.551,0.125 0.734,0.232 0.186,0.104 0.319,0.237 0.399,0.395 0.078,0.159 0.119,0.346 0.119,0.568 0,0.252 -0.06,0.458 -0.172,0.626 -0.11,0.165 -0.247,0.296 -0.401,0.395 z M -30.029,2.95 c -0.128,0.116 -0.268,0.202 -0.424,0.261 -0.16,0.061 -0.314,0.09 -0.476,0.09 -0.259,0 -0.491,-0.066 -0.69,-0.194 -0.193,-0.133 -0.36,-0.299 -0.487,-0.5 l 0.294,1.399 c 0.009,0.038 0.016,0.069 0.021,0.102 0.006,0.031 0.009,0.062 0.009,0.093 0,0.158 -0.053,0.272 -0.153,0.343 -0.105,0.073 -0.239,0.109 -0.411,0.109 l -0.284,0 -1.055,-4.954 c -0.016,-0.075 -0.023,-0.146 -0.023,-0.215 0,-0.152 0.047,-0.263 0.147,-0.327 0.096,-0.064 0.236,-0.097 0.415,-0.097 l 0.293,0 0.484,2.29 c 0.067,0.315 0.197,0.573 0.39,0.781 0.194,0.206 0.442,0.308 0.749,0.308 0.079,0 0.157,-0.007 0.236,-0.026 0.073,-0.017 0.144,-0.05 0.2,-0.1 0.062,-0.047 0.108,-0.116 0.144,-0.198 0.035,-0.083 0.057,-0.195 0.057,-0.327 0,-0.145 -0.02,-0.284 -0.052,-0.422 l -0.36,-1.667 c -0.012,-0.04 -0.019,-0.083 -0.026,-0.123 -0.008,-0.042 -0.013,-0.083 -0.013,-0.123 0,-0.144 0.048,-0.244 0.142,-0.305 0.091,-0.055 0.229,-0.088 0.404,-0.088 l 0.327,0 0.504,2.375 c 0.037,0.175 0.053,0.35 0.053,0.523 0,0.213 -0.039,0.4 -0.117,0.569 -0.076,0.165 -0.176,0.307 -0.298,0.423 z m -5.02,0.266 0.2,0.933 -0.046,-0.008 c -0.117,-0.009 -0.227,-0.037 -0.333,-0.08 -0.105,-0.045 -0.203,-0.102 -0.291,-0.175 -0.123,-0.102 -0.228,-0.22 -0.319,-0.348 -0.088,-0.133 -0.149,-0.273 -0.178,-0.42 l -0.557,-2.621 c -0.014,-0.08 -0.029,-0.154 -0.036,-0.218 -0.005,-0.066 -0.01,-0.132 -0.01,-0.206 0,-0.229 0.039,-0.414 0.124,-0.558 0.08,-0.14 0.182,-0.251 0.305,-0.33 0.119,-0.08 0.245,-0.132 0.374,-0.158 0.132,-0.026 0.247,-0.04 0.346,-0.04 0.261,0 0.465,0.052 0.609,0.153 0.147,0.1 0.243,0.242 0.282,0.42 l 0.08,0.362 -0.027,0 c -0.085,-0.04 -0.181,-0.069 -0.291,-0.078 -0.108,-0.014 -0.227,-0.022 -0.36,-0.022 -0.188,0 -0.308,0.048 -0.372,0.14 -0.061,0.095 -0.093,0.204 -0.093,0.332 0,0.042 0.002,0.083 0.009,0.118 0.006,0.04 0.011,0.081 0.023,0.123 l 0.387,1.845 0.729,0 c 0.149,0 0.287,0.042 0.41,0.123 0.124,0.08 0.202,0.189 0.239,0.322 l 0.101,0.391 -1.305,0 z m -3.49,-0.038 c -0.071,0.038 -0.154,0.066 -0.25,0.085 -0.095,0.019 -0.195,0.026 -0.305,0.026 -0.25,0 -0.473,-0.05 -0.659,-0.144 -0.192,-0.093 -0.355,-0.216 -0.492,-0.368 -0.135,-0.153 -0.248,-0.326 -0.335,-0.518 -0.087,-0.194 -0.151,-0.386 -0.192,-0.58 l -0.411,-1.909 c -0.013,-0.078 -0.018,-0.151 -0.018,-0.222 0,-0.166 0.044,-0.287 0.135,-0.367 0.094,-0.078 0.22,-0.121 0.387,-0.121 l 0.308,0 0.508,2.425 c 0.031,0.135 0.068,0.26 0.113,0.378 0.041,0.119 0.099,0.223 0.17,0.313 0.071,0.09 0.16,0.161 0.261,0.213 0.097,0.05 0.22,0.076 0.362,0.076 0.1,0 0.188,-0.01 0.273,-0.028 0.08,-0.024 0.16,-0.062 0.236,-0.119 l 0.041,0 0.081,0.355 c 0.008,0.026 0.013,0.052 0.013,0.076 0.002,0.028 0.007,0.055 0.007,0.078 0,0.081 -0.025,0.152 -0.064,0.209 -0.039,0.056 -0.096,0.101 -0.169,0.142 z m -4.209,-2.257 c -0.049,-0.215 -0.127,-0.407 -0.235,-0.575 -0.103,-0.171 -0.235,-0.308 -0.389,-0.415 -0.158,-0.104 -0.341,-0.158 -0.554,-0.158 -0.085,0 -0.181,0.014 -0.276,0.04 -0.098,0.026 -0.192,0.073 -0.275,0.142 -0.093,0.071 -0.162,0.166 -0.217,0.286 -0.06,0.119 -0.087,0.28 -0.087,0.474 0,0.218 0.027,0.431 0.084,0.642 0.051,0.211 0.132,0.4 0.243,0.571 0.104,0.17 0.237,0.305 0.394,0.407 0.156,0.104 0.34,0.156 0.551,0.156 0.11,0 0.213,-0.017 0.311,-0.047 0.102,-0.031 0.191,-0.081 0.266,-0.152 0.076,-0.069 0.14,-0.163 0.189,-0.286 0.049,-0.119 0.073,-0.266 0.073,-0.441 0,-0.218 -0.024,-0.433 -0.078,-0.644 z m 0.453,2.01 c -0.169,0.133 -0.357,0.228 -0.551,0.285 -0.196,0.056 -0.37,0.085 -0.526,0.085 -0.368,0 -0.703,-0.069 -0.999,-0.209 -0.296,-0.139 -0.552,-0.326 -0.757,-0.563 -0.206,-0.239 -0.362,-0.516 -0.472,-0.836 -0.11,-0.32 -0.167,-0.656 -0.167,-1.013 0,-0.32 0.057,-0.588 0.169,-0.808 0.113,-0.22 0.257,-0.398 0.426,-0.53 0.173,-0.135 0.365,-0.232 0.565,-0.289 0.204,-0.062 0.39,-0.09 0.566,-0.09 0.394,0 0.742,0.078 1.036,0.232 0.296,0.154 0.541,0.355 0.734,0.606 0.197,0.253 0.343,0.535 0.442,0.85 0.094,0.315 0.146,0.632 0.146,0.95 0,0.324 -0.059,0.592 -0.176,0.807 -0.117,0.216 -0.262,0.391 -0.436,0.523 z m -3.749,0.517 c 0.188,0 0.336,0.049 0.441,0.151 0.105,0.102 0.173,0.213 0.201,0.336 l 0.073,0.375 -2.348,0 c -0.282,0 -0.507,-0.057 -0.676,-0.166 -0.167,-0.112 -0.279,-0.313 -0.343,-0.606 l -0.837,-3.936 c -0.013,-0.026 -0.017,-0.057 -0.017,-0.085 0,-0.026 0,-0.052 0,-0.078 0,-0.138 0.044,-0.237 0.13,-0.294 0.089,-0.054 0.198,-0.085 0.332,-0.085 l 0.431,0 0.478,2.252 1.403,0 c 0.142,0 0.264,0.038 0.365,0.121 0.1,0.08 0.174,0.198 0.215,0.348 0.007,0.004 0.018,0.035 0.032,0.092 0.012,0.062 0.023,0.114 0.032,0.159 0.012,0.047 0.017,0.073 0.017,0.078 l -1.91,0 0.284,1.338 1.697,0 z m -6.327,-3.235 c -0.061,0.064 -0.13,0.109 -0.208,0.147 -0.081,0.035 -0.168,0.052 -0.26,0.052 -0.092,0 -0.179,-0.017 -0.26,-0.052 C -53.178,0.322 -53.248,0.277 -53.305,0.213 -53.367,0.152 -53.413,0.08 -53.446,0 c -0.033,-0.083 -0.05,-0.17 -0.05,-0.26 0,-0.095 0.017,-0.183 0.05,-0.263 0.033,-0.083 0.079,-0.154 0.141,-0.213 0.057,-0.064 0.127,-0.112 0.206,-0.147 0.081,-0.038 0.168,-0.057 0.26,-0.057 0.092,0 0.179,0.019 0.26,0.057 0.078,0.035 0.147,0.083 0.208,0.147 0.06,0.059 0.106,0.13 0.138,0.213 0.035,0.08 0.051,0.168 0.051,0.263 0,0.09 -0.016,0.177 -0.051,0.26 -0.032,0.08 -0.078,0.152 -0.138,0.213 z m -2.613,1.437 c -0.103,-0.078 -0.24,-0.125 -0.409,-0.151 -0.101,-0.014 -0.226,-0.026 -0.373,-0.038 -0.147,-0.009 -0.31,-0.017 -0.489,-0.017 l -0.493,0 c 0.005,0.012 0.018,0.06 0.038,0.145 0.02,0.083 0.058,0.175 0.115,0.284 0.058,0.109 0.133,0.211 0.227,0.305 0.095,0.09 0.211,0.171 0.348,0.24 0.136,0.064 0.297,0.094 0.48,0.094 0.088,0 0.173,-0.007 0.259,-0.023 0.084,-0.017 0.161,-0.05 0.227,-0.09 0.066,-0.045 0.121,-0.102 0.162,-0.168 0.042,-0.069 0.064,-0.154 0.064,-0.256 0,-0.142 -0.054,-0.251 -0.156,-0.325 z m 0.487,1.395 c -0.156,0.097 -0.318,0.166 -0.487,0.208 -0.17,0.038 -0.312,0.06 -0.423,0.06 -0.313,0 -0.59,-0.048 -0.83,-0.147 -0.238,-0.097 -0.446,-0.223 -0.624,-0.377 -0.177,-0.151 -0.324,-0.326 -0.442,-0.521 -0.119,-0.191 -0.213,-0.381 -0.286,-0.573 -0.072,-0.189 -0.123,-0.367 -0.155,-0.53 -0.029,-0.163 -0.046,-0.298 -0.046,-0.4 -0.003,-0.37 0.052,-0.673 0.169,-0.907 0.12,-0.232 0.266,-0.412 0.436,-0.549 0.174,-0.133 0.355,-0.223 0.548,-0.273 0.191,-0.049 0.364,-0.073 0.513,-0.073 0.462,0 0.828,0.078 1.101,0.232 0.273,0.152 0.434,0.369 0.486,0.651 l 0.045,0.27 -0.029,0 c -0.17,-0.116 -0.356,-0.206 -0.558,-0.265 -0.203,-0.059 -0.445,-0.088 -0.721,-0.088 -0.092,0 -0.201,0.007 -0.32,0.022 -0.121,0.016 -0.234,0.056 -0.336,0.116 -0.104,0.063 -0.189,0.156 -0.261,0.277 -0.073,0.123 -0.107,0.291 -0.107,0.502 l 0,0.078 0.514,0 c 0.453,0 0.833,0.023 1.138,0.071 0.306,0.049 0.549,0.125 0.735,0.232 0.185,0.104 0.316,0.237 0.396,0.395 0.08,0.159 0.121,0.346 0.121,0.568 0,0.252 -0.058,0.458 -0.17,0.626 -0.113,0.165 -0.249,0.296 -0.407,0.395 z m -4.456,0.038 c -0.145,0.097 -0.297,0.161 -0.462,0.189 -0.164,0.026 -0.314,0.041 -0.447,0.041 -0.276,0 -0.542,-0.074 -0.794,-0.221 -0.251,-0.146 -0.448,-0.338 -0.593,-0.58 -0.059,0.247 -0.199,0.441 -0.415,0.588 -0.216,0.139 -0.467,0.213 -0.755,0.213 -0.289,0 -0.542,-0.048 -0.767,-0.142 -0.225,-0.095 -0.419,-0.225 -0.589,-0.386 -0.171,-0.161 -0.311,-0.353 -0.421,-0.573 -0.11,-0.221 -0.191,-0.455 -0.241,-0.701 l -0.386,-1.793 c -0.017,-0.073 -0.023,-0.139 -0.023,-0.201 0,-0.303 0.179,-0.457 0.54,-0.457 l 0.322,0 0.504,2.37 c 0.027,0.133 0.068,0.263 0.113,0.384 0.048,0.123 0.108,0.232 0.184,0.329 0.077,0.095 0.173,0.168 0.281,0.225 0.11,0.057 0.246,0.085 0.406,0.085 0.077,0 0.152,-0.009 0.224,-0.031 0.071,-0.021 0.136,-0.056 0.192,-0.104 0.055,-0.05 0.101,-0.116 0.131,-0.199 0.031,-0.085 0.045,-0.189 0.045,-0.312 0,-0.119 -0.014,-0.239 -0.045,-0.363 l -0.37,-1.728 c -0.011,-0.04 -0.02,-0.083 -0.023,-0.123 -0.006,-0.04 -0.008,-0.078 -0.008,-0.116 0,-0.159 0.046,-0.268 0.138,-0.329 0.091,-0.055 0.223,-0.088 0.385,-0.088 l 0.325,0 0.508,2.384 c 0.026,0.119 0.059,0.24 0.1,0.358 0.041,0.123 0.098,0.23 0.173,0.324 0.076,0.095 0.17,0.173 0.285,0.235 0.115,0.061 0.258,0.092 0.427,0.092 0.129,0 0.231,-0.021 0.309,-0.061 0.077,-0.043 0.135,-0.095 0.173,-0.154 0.038,-0.062 0.063,-0.128 0.078,-0.197 0.013,-0.069 0.018,-0.133 0.018,-0.187 0,-0.104 -0.003,-0.204 -0.015,-0.296 -0.012,-0.095 -0.028,-0.199 -0.053,-0.305 l -0.331,-1.537 c -0.017,-0.078 -0.023,-0.152 -0.023,-0.225 0,-0.137 0.04,-0.242 0.121,-0.317 0.083,-0.074 0.219,-0.114 0.41,-0.114 l 0.329,0 0.493,2.32 c 0.019,0.093 0.034,0.18 0.04,0.261 0.009,0.083 0.011,0.175 0.011,0.279 0,0.306 -0.048,0.554 -0.145,0.737 -0.096,0.184 -0.217,0.327 -0.359,0.426 z m -7.49,-2.65 c -0.052,-0.239 -0.145,-0.414 -0.281,-0.528 -0.137,-0.111 -0.33,-0.165 -0.581,-0.165 -0.171,0 -0.317,0.033 -0.445,0.108 -0.123,0.074 -0.187,0.192 -0.187,0.358 0,0.152 0.034,0.277 0.106,0.369 0.072,0.097 0.162,0.166 0.272,0.216 0.106,0.05 0.225,0.08 0.353,0.097 0.128,0.019 0.252,0.028 0.371,0.028 l 0.491,0 -0.099,-0.483 z m 0.705,2.605 c -0.148,0.095 -0.306,0.163 -0.483,0.211 -0.175,0.042 -0.34,0.064 -0.501,0.064 -0.204,0 -0.398,-0.024 -0.581,-0.074 -0.181,-0.047 -0.343,-0.113 -0.481,-0.199 -0.139,-0.083 -0.253,-0.182 -0.343,-0.296 -0.09,-0.111 -0.144,-0.232 -0.166,-0.36 l -0.068,-0.378 0.047,0 c 0.172,0.165 0.368,0.291 0.587,0.378 0.219,0.088 0.482,0.128 0.791,0.128 0.113,0 0.217,-0.007 0.315,-0.021 0.097,-0.017 0.184,-0.045 0.255,-0.085 0.072,-0.04 0.128,-0.095 0.165,-0.166 0.039,-0.069 0.057,-0.156 0.057,-0.258 0,-0.071 -0.008,-0.14 -0.022,-0.206 l -0.037,-0.171 -0.363,0 c -0.428,0 -0.789,-0.037 -1.088,-0.116 -0.296,-0.078 -0.538,-0.177 -0.721,-0.312 -0.188,-0.13 -0.32,-0.284 -0.407,-0.467 -0.083,-0.177 -0.127,-0.369 -0.127,-0.575 0,-0.253 0.056,-0.455 0.17,-0.609 0.113,-0.154 0.248,-0.272 0.404,-0.355 0.156,-0.083 0.317,-0.137 0.478,-0.165 0.162,-0.027 0.29,-0.043 0.381,-0.043 0.299,0 0.557,0.031 0.782,0.095 0.222,0.059 0.417,0.156 0.577,0.286 0.161,0.133 0.294,0.303 0.397,0.512 0.103,0.21 0.186,0.464 0.248,0.762 l 0.177,0.855 c 0.026,0.111 0.043,0.213 0.049,0.305 0.009,0.088 0.011,0.175 0.011,0.263 0,0.237 -0.046,0.438 -0.141,0.604 -0.095,0.163 -0.217,0.293 -0.362,0.393 z m -3.854,1.153 c -0.135,0.076 -0.292,0.133 -0.47,0.171 -0.177,0.037 -0.358,0.059 -0.543,0.059 -0.435,0 -0.813,-0.069 -1.133,-0.204 -0.318,-0.132 -0.591,-0.303 -0.82,-0.507 -0.229,-0.203 -0.417,-0.431 -0.564,-0.681 -0.147,-0.254 -0.263,-0.498 -0.345,-0.739 -0.082,-0.237 -0.14,-0.455 -0.176,-0.649 -0.034,-0.194 -0.05,-0.336 -0.05,-0.431 -0.004,-0.405 0.065,-0.748 0.214,-1.035 0.148,-0.286 0.331,-0.516 0.549,-0.696 0.219,-0.18 0.453,-0.31 0.701,-0.393 0.246,-0.083 0.467,-0.123 0.669,-0.123 0.528,0 0.953,0.099 1.272,0.301 0.317,0.199 0.524,0.523 0.619,0.977 l 0.135,0.671 c 0.027,0.113 0.04,0.199 0.04,0.26 0,0.119 -0.036,0.213 -0.11,0.28 -0.07,0.063 -0.167,0.099 -0.292,0.099 l -0.47,0 C -70.37,1.463 -70.377,1.369 -70.385,1.269 -70.392,1.172 -70.406,1.077 -70.427,0.99 L -70.55,0.402 c -0.047,-0.215 -0.136,-0.362 -0.271,-0.438 -0.133,-0.078 -0.324,-0.116 -0.568,-0.116 -0.043,0 -0.105,0.003 -0.187,0.01 -0.082,0.009 -0.168,0.028 -0.264,0.061 -0.096,0.029 -0.194,0.074 -0.297,0.133 -0.104,0.059 -0.195,0.142 -0.276,0.249 -0.084,0.101 -0.15,0.234 -0.202,0.393 -0.052,0.156 -0.075,0.345 -0.069,0.57 0,0.083 0.01,0.199 0.032,0.344 0.02,0.147 0.055,0.305 0.11,0.476 0.054,0.168 0.129,0.338 0.219,0.516 0.093,0.173 0.216,0.329 0.365,0.469 0.153,0.139 0.338,0.253 0.551,0.343 0.217,0.09 0.47,0.135 0.764,0.135 0.292,0 0.563,-0.047 0.808,-0.142 0.247,-0.095 0.434,-0.23 0.557,-0.405 l 0.044,0 0.055,0.223 c 0.01,0.042 0.019,0.094 0.027,0.156 0.006,0.066 0.012,0.118 0.012,0.159 0,0.139 -0.043,0.262 -0.125,0.371 -0.081,0.109 -0.189,0.204 -0.327,0.282 z M -77.04,1.65 c -0.103,-0.078 -0.239,-0.125 -0.408,-0.151 -0.104,-0.014 -0.227,-0.026 -0.373,-0.038 -0.147,-0.009 -0.311,-0.017 -0.49,-0.017 l -0.493,0 c 0.003,0.012 0.017,0.06 0.037,0.145 0.022,0.083 0.059,0.175 0.117,0.284 0.056,0.109 0.131,0.211 0.227,0.305 0.094,0.09 0.21,0.171 0.347,0.24 0.135,0.064 0.295,0.094 0.481,0.094 0.088,0 0.172,-0.007 0.258,-0.023 0.086,-0.017 0.161,-0.05 0.228,-0.09 0.067,-0.045 0.12,-0.102 0.162,-0.168 0.04,-0.069 0.06,-0.154 0.06,-0.256 0,-0.142 -0.051,-0.251 -0.153,-0.325 z m 0.488,1.395 c -0.155,0.097 -0.319,0.166 -0.488,0.208 -0.17,0.038 -0.311,0.06 -0.424,0.06 -0.314,0 -0.59,-0.048 -0.827,-0.147 -0.24,-0.097 -0.449,-0.223 -0.625,-0.377 -0.178,-0.151 -0.324,-0.326 -0.443,-0.521 -0.118,-0.191 -0.213,-0.381 -0.286,-0.573 -0.07,-0.189 -0.122,-0.367 -0.154,-0.53 -0.029,-0.163 -0.045,-0.298 -0.045,-0.4 -0.005,-0.37 0.051,-0.673 0.169,-0.907 0.118,-0.232 0.264,-0.412 0.435,-0.549 0.172,-0.133 0.355,-0.223 0.547,-0.273 0.191,-0.049 0.364,-0.073 0.511,-0.073 0.465,0 0.831,0.078 1.102,0.232 0.274,0.152 0.434,0.369 0.488,0.651 l 0.046,0.27 -0.032,0 c -0.17,-0.116 -0.355,-0.206 -0.557,-0.265 -0.204,-0.059 -0.444,-0.088 -0.722,-0.088 -0.092,0 -0.199,0.007 -0.319,0.022 -0.121,0.016 -0.234,0.056 -0.336,0.116 -0.103,0.063 -0.188,0.156 -0.261,0.277 -0.072,0.123 -0.109,0.291 -0.109,0.502 l 0,0.078 0.516,0 c 0.453,0 0.832,0.023 1.137,0.071 0.305,0.049 0.55,0.125 0.738,0.232 0.182,0.104 0.314,0.237 0.395,0.395 0.079,0.159 0.12,0.346 0.12,0.568 0,0.252 -0.058,0.458 -0.169,0.626 -0.114,0.165 -0.25,0.296 -0.407,0.395 z M -80.823,2.95 c -0.126,0.116 -0.266,0.202 -0.421,0.261 -0.159,0.061 -0.317,0.09 -0.477,0.09 -0.261,0 -0.49,-0.066 -0.689,-0.194 -0.198,-0.133 -0.36,-0.299 -0.489,-0.5 l 0.293,1.399 c 0.01,0.038 0.017,0.069 0.023,0.102 0.006,0.031 0.006,0.062 0.006,0.093 0,0.158 -0.049,0.272 -0.152,0.343 -0.103,0.073 -0.241,0.109 -0.408,0.109 l -0.286,0 -1.055,-4.954 c -0.017,-0.075 -0.023,-0.146 -0.023,-0.215 0,-0.152 0.048,-0.263 0.145,-0.327 0.098,-0.064 0.236,-0.097 0.417,-0.097 l 0.291,0 0.488,2.29 c 0.066,0.315 0.196,0.573 0.386,0.781 0.194,0.206 0.445,0.308 0.753,0.308 0.079,0 0.154,-0.007 0.232,-0.026 0.077,-0.017 0.143,-0.05 0.205,-0.1 0.057,-0.047 0.106,-0.116 0.14,-0.198 0.037,-0.083 0.055,-0.195 0.055,-0.327 0,-0.145 -0.017,-0.284 -0.045,-0.422 l -0.364,-1.667 c -0.011,-0.04 -0.019,-0.083 -0.026,-0.123 -0.009,-0.042 -0.012,-0.083 -0.012,-0.123 0,-0.144 0.047,-0.244 0.138,-0.305 0.092,-0.055 0.228,-0.088 0.408,-0.088 l 0.326,0 0.504,2.375 c 0.035,0.175 0.053,0.35 0.053,0.523 0,0.213 -0.039,0.4 -0.115,0.569 -0.077,0.165 -0.178,0.307 -0.301,0.423 z m -5.018,0.266 0.201,0.933 -0.046,-0.008 c -0.119,-0.009 -0.232,-0.037 -0.335,-0.08 -0.106,-0.045 -0.202,-0.102 -0.289,-0.175 -0.123,-0.102 -0.229,-0.22 -0.319,-0.348 -0.09,-0.133 -0.152,-0.273 -0.183,-0.42 l -0.554,-2.621 c -0.016,-0.08 -0.028,-0.154 -0.036,-0.218 -0.007,-0.066 -0.01,-0.132 -0.01,-0.206 0,-0.229 0.042,-0.414 0.122,-0.558 0.083,-0.14 0.185,-0.251 0.305,-0.33 0.122,-0.08 0.246,-0.132 0.379,-0.158 0.13,-0.026 0.244,-0.04 0.342,-0.04 0.26,0 0.465,0.052 0.613,0.153 0.147,0.1 0.239,0.242 0.281,0.42 l 0.076,0.362 -0.022,0 c -0.087,-0.04 -0.186,-0.069 -0.294,-0.078 -0.108,-0.014 -0.228,-0.022 -0.362,-0.022 -0.184,0 -0.308,0.048 -0.369,0.14 -0.062,0.095 -0.092,0.204 -0.092,0.332 0,0.042 0,0.083 0.007,0.118 0.004,0.04 0.012,0.081 0.023,0.123 l 0.383,1.845 0.734,0 c 0.15,0 0.285,0.042 0.409,0.123 0.122,0.08 0.202,0.189 0.237,0.322 l 0.102,0.391 -1.303,0 z m -3.49,-0.038 c -0.072,0.038 -0.157,0.066 -0.252,0.085 -0.094,0.019 -0.196,0.026 -0.303,0.026 -0.253,0 -0.472,-0.05 -0.663,-0.144 -0.19,-0.093 -0.354,-0.216 -0.489,-0.368 -0.137,-0.153 -0.249,-0.326 -0.335,-0.518 -0.087,-0.194 -0.152,-0.386 -0.194,-0.58 l -0.407,-1.909 c -0.016,-0.078 -0.024,-0.151 -0.024,-0.222 0,-0.166 0.048,-0.287 0.14,-0.367 0.092,-0.078 0.219,-0.121 0.383,-0.121 l 0.311,0 0.507,2.425 c 0.032,0.135 0.068,0.26 0.111,0.378 0.045,0.119 0.101,0.223 0.173,0.313 0.072,0.09 0.158,0.161 0.259,0.213 0.099,0.05 0.222,0.076 0.366,0.076 0.097,0 0.189,-0.01 0.269,-0.028 0.083,-0.024 0.162,-0.062 0.24,-0.119 l 0.038,0 0.084,0.355 c 0.007,0.026 0.01,0.052 0.011,0.076 0.005,0.028 0.005,0.055 0.005,0.078 0,0.081 -0.02,0.152 -0.061,0.209 -0.042,0.056 -0.098,0.101 -0.169,0.142 z M -93.54,0.921 c -0.052,-0.215 -0.129,-0.407 -0.237,-0.575 -0.104,-0.171 -0.233,-0.308 -0.392,-0.415 -0.156,-0.104 -0.34,-0.158 -0.549,-0.158 -0.088,0 -0.18,0.014 -0.278,0.04 -0.098,0.026 -0.19,0.073 -0.277,0.142 -0.086,0.071 -0.159,0.166 -0.216,0.286 -0.056,0.119 -0.085,0.28 -0.085,0.474 0,0.218 0.027,0.431 0.081,0.642 0.054,0.211 0.135,0.4 0.242,0.571 0.107,0.17 0.24,0.305 0.396,0.407 0.158,0.104 0.34,0.156 0.552,0.156 0.109,0 0.213,-0.017 0.313,-0.047 0.1,-0.031 0.188,-0.081 0.266,-0.152 0.076,-0.069 0.14,-0.163 0.188,-0.286 0.048,-0.119 0.073,-0.266 0.073,-0.441 0,-0.218 -0.025,-0.433 -0.077,-0.644 z m 0.451,2.01 c -0.172,0.133 -0.356,0.228 -0.552,0.285 -0.193,0.056 -0.369,0.085 -0.524,0.085 -0.368,0 -0.704,-0.069 -1.001,-0.209 -0.298,-0.139 -0.549,-0.326 -0.754,-0.563 -0.206,-0.239 -0.364,-0.516 -0.476,-0.836 -0.108,-0.32 -0.163,-0.656 -0.163,-1.013 0,-0.32 0.055,-0.588 0.168,-0.808 0.115,-0.22 0.255,-0.398 0.428,-0.53 0.172,-0.135 0.36,-0.232 0.563,-0.289 0.202,-0.062 0.39,-0.09 0.566,-0.09 0.394,0 0.74,0.078 1.037,0.232 0.294,0.154 0.54,0.355 0.735,0.606 0.194,0.253 0.34,0.535 0.44,0.85 0.096,0.315 0.145,0.632 0.145,0.95 0,0.324 -0.059,0.592 -0.177,0.807 -0.119,0.216 -0.263,0.391 -0.435,0.523 z m -3.749,0.517 c 0.189,0 0.336,0.049 0.442,0.151 0.105,0.102 0.171,0.213 0.196,0.336 l 0.077,0.375 -2.349,0 c -0.282,0 -0.507,-0.057 -0.674,-0.166 -0.167,-0.112 -0.281,-0.313 -0.343,-0.606 l -0.84,-3.936 c -0.009,-0.026 -0.014,-0.057 -0.014,-0.085 0,-0.026 0,-0.052 0,-0.078 0,-0.138 0.042,-0.237 0.13,-0.294 0.087,-0.054 0.198,-0.085 0.331,-0.085 l 0.433,0 0.475,2.252 1.405,0 c 0.143,0 0.264,0.038 0.364,0.121 0.101,0.08 0.172,0.198 0.213,0.348 0.009,0.004 0.021,0.035 0.035,0.092 0.012,0.062 0.023,0.114 0.033,0.159 0.012,0.047 0.016,0.073 0.016,0.078 l -1.91,0 0.284,1.338 1.696,0"
           id="path2878"
           style="fill:#131a3c;fill-opacity:1;fill-rule:nonzero;stroke:none"
           inkscape:connector-curvature="0" /></g><g
         transform="translate(759.558,98.48)"
         id="g2880"
         style="fill:#131a3c;fill-opacity:1"><path
           d="m 0,0 0,-21.32 6.734,0 0,7.698 4.679,0 1.819,4.66 -6.498,0 0,4.326 7.909,0 L 16.368,0 0,0"
           id="path2882"
           style="fill:#131a3c;fill-opacity:1;fill-rule:evenodd;stroke:none"
           inkscape:connector-curvature="0" /></g><g
         transform="translate(777.985,98.48)"
         id="g2884"
         style="fill:#131a3c;fill-opacity:1"><path
           d="m 0,0 -0.012,-21.32 6.656,0 L 6.644,0 0,0"
           id="path2886"
           style="fill:#131a3c;fill-opacity:1;fill-rule:evenodd;stroke:none"
           inkscape:connector-curvature="0" /></g><g
         transform="translate(810.749,84.124)"
         id="g2888"
         style="fill:#131a3c;fill-opacity:1"><path
           d="M 0,0 2.564,8.877 5.22,0 0,0 z m 6.128,14.356 -6.911,0 -7.663,-21.322 6.433,0 0.828,2.867 7.499,0 0.867,-2.867 6.63,0 -7.683,21.322"
           id="path2890"
           style="fill:#131a3c;fill-opacity:1;fill-rule:evenodd;stroke:none"
           inkscape:connector-curvature="0" /></g><g
         transform="translate(789.225,98.48)"
         id="g2892"
         style="fill:#131a3c;fill-opacity:1"><path
           d="m 0,0 0,-21.32 6.73,0 0,7.698 4.674,0 1.832,4.66 -6.506,0 0,4.326 7.912,0 L 16.38,0 0,0"
           id="path2894"
           style="fill:#131a3c;fill-opacity:1;fill-rule:evenodd;stroke:none"
           inkscape:connector-curvature="0" /></g><g
         transform="translate(823.148,96.207)"
         id="g2896"
         style="fill:#131a3c;fill-opacity:1" /></g></g></svg>